<svg width="562" height="184" viewBox="0 0 562 184" fill="none" xmlns="http://www.w3.org/2000/svg">
<path fill-rule="evenodd" clip-rule="evenodd" d="M-82.3925 35.0228C-72.8438 -61.4165 439.484 -247.555 534.596 -156.209C629.708 -64.8637 605.634 127.271 406.314 171.17C206.995 215.069 -91.9412 131.462 -82.3925 35.0228Z" fill="#2F3676"/>
<mask id="mask0" mask-type="alpha" maskUnits="userSpaceOnUse" x="-83" y="-181" width="672" height="365">
<path fill-rule="evenodd" clip-rule="evenodd" d="M-82.3925 35.0228C-72.8438 -61.4165 439.484 -247.555 534.596 -156.209C629.708 -64.8637 605.634 127.271 406.314 171.17C206.995 215.069 -91.9412 131.462 -82.3925 35.0228Z" fill="white"/>
</mask>
<g mask="url(#mask0)">
<path fill-rule="evenodd" clip-rule="evenodd" d="M510.941 57.9254C510.916 57.3203 510.857 56.7068 510.698 56.127C510.639 55.9169 510.521 55.7152 510.446 55.5051C510.269 55.026 510.11 54.5554 509.858 54.1184C509.723 53.8915 509.538 53.7066 509.379 53.4881C509.11 53.11 508.85 52.7234 508.522 52.3956C508.329 52.2107 508.077 52.0595 507.867 51.883C507.539 51.6141 507.237 51.3199 506.859 51.093C506.825 51.0678 506.783 51.0678 506.741 51.0426C506.716 51.0258 506.699 51.009 506.674 50.9922L431.25 9.05679C428.722 7.64494 425.648 7.65334 423.102 9.04838L347.326 50.9838C347.301 51.009 347.276 51.0426 347.234 51.0678C347.208 51.0762 347.175 51.0846 347.15 51.1014C346.856 51.2695 346.637 51.5132 346.36 51.7149C346.058 51.9418 345.738 52.1435 345.47 52.404C345.218 52.6646 345.024 52.9671 344.806 53.2612C344.579 53.5554 344.327 53.8159 344.142 54.1352C343.924 54.4966 343.806 54.9084 343.647 55.3034C343.529 55.5807 343.378 55.8412 343.302 56.1438C343.143 56.7068 343.092 57.3119 343.059 57.9086C343.05 58.0515 343 58.1775 343 58.3288V58.3372V58.3456V125.577C343 128.627 344.655 131.443 347.326 132.922L422.741 174.832L422.75 174.84C422.758 174.84 422.758 174.84 422.766 174.849L422.934 174.941C423.296 175.143 423.69 175.252 424.068 175.395C424.337 175.504 424.598 175.647 424.883 175.723C425.564 175.899 426.286 176 427 176C427.714 176 428.436 175.899 429.134 175.723C429.411 175.647 429.671 175.504 429.948 175.395C430.326 175.252 430.721 175.151 431.082 174.941L431.25 174.849C431.259 174.84 431.259 174.84 431.267 174.84L431.276 174.832L506.691 132.922C509.345 131.443 511 128.627 511 125.577V58.3456V58.3372V58.3288C511 58.1859 510.95 58.0683 510.941 57.9254ZM426.765 90.8854L368.687 58.3876L391.888 45.5465L449.294 78.3636L426.765 90.8854ZM427.168 26.0158L485.304 58.3456L466.455 68.8252L409.083 36.0249L427.168 26.0158ZM359.8 72.6742L418.6 105.584V153.318L359.8 120.627V72.6742ZM435.4 153.318L435.417 105.592L460.6 91.4905V117.173L477.4 108.769V82.0866L494.2 72.6826V120.627L435.4 153.318Z" fill="#191847"/>
</g>
</svg>
